<svg id="Group_1740" data-name="Group 1740" xmlns="http://www.w3.org/2000/svg" width="9.578" height="13.303" viewBox="0 0 9.578 13.303">
  <path id="Path_528" data-name="Path 528" d="M74.474,108.89a.657.657,0,0,0,.646.642h6.037a.657.657,0,0,0,.646-.642l.431-9.422H74.043Zm5.031-7.082a.267.267,0,0,1,.263-.272h.42a.267.267,0,0,1,.263.272v5.383a.267.267,0,0,1-.263.272h-.42a.267.267,0,0,1-.263-.272Zm-1.838,0a.267.267,0,0,1,.263-.272h.42a.267.267,0,0,1,.263.272v5.383a.267.267,0,0,1-.263.272h-.42a.267.267,0,0,1-.263-.272v-5.383Zm-1.838,0a.267.267,0,0,1,.263-.272h.42a.267.267,0,0,1,.263.272v5.383a.267.267,0,0,1-.263.272h-.42a.267.267,0,0,1-.263-.272Z" transform="translate(-73.35 -96.229)" fill="#e26767"/>
  <path id="Path_529" data-name="Path 529" d="M61.188.685H58.4V.14A.138.138,0,0,0,58.267,0H55.342a.138.138,0,0,0-.135.14V.685H52.422a.413.413,0,0,0-.406.42v1.32h9.578V1.105A.413.413,0,0,0,61.188.685Z" transform="translate(-52.016)" fill="#e26767"/>
</svg>
