<svg xmlns="http://www.w3.org/2000/svg" width="13.041" height="13.359" viewBox="0 0 13.041 13.359">
  <g id="Group_1741" data-name="Group 1741" transform="translate(0.15 0.15)">
    <path id="Path_530" data-name="Path 530" d="M12.319,26.456a.338.338,0,0,0-.332.344v3.056a1.016,1.016,0,0,1-1,1.032H1.662a1.016,1.016,0,0,1-1-1.032V20.889a1.016,1.016,0,0,1,1-1.032H4.613a.344.344,0,0,0,0-.688H1.662A1.694,1.694,0,0,0,0,20.889v8.967a1.694,1.694,0,0,0,1.662,1.721h9.327a1.694,1.694,0,0,0,1.662-1.721V26.8A.339.339,0,0,0,12.319,26.456Zm0,0" transform="translate(0 -18.518)" fill="#0357a8" stroke="#0357a8" stroke-width="0.3"/>
    <path id="Path_531" data-name="Path 531" d="M156.367,37.353l4.854-5.025,1.565,1.62-4.854,5.025Zm0,0" transform="translate(-151.169 -31.225)" fill="#0357a8" stroke="#0357a8" stroke-width="0.3"/>
    <path id="Path_532" data-name="Path 532" d="M132.543,199.01l1.73-.5-1.251-1.295Zm0,0" transform="translate(-128.137 -190.441)" fill="#0357a8" stroke="#0357a8" stroke-width="0.3"/>
    <path id="Path_533" data-name="Path 533" d="M318.055.52a.812.812,0,0,0-1.175,0l-.353.365,1.565,1.62.353-.365a.883.883,0,0,0,0-1.217Zm0,0" transform="translate(-306.005 -0.269)" fill="#0357a8" stroke="#0357a8" stroke-width="0.3"/>
  </g>
</svg>
