<svg xmlns="http://www.w3.org/2000/svg" width="14.639" height="7.72" viewBox="0 0 14.639 7.72">
    <defs>
        <style>
            .cls-1{fill:#5a5a5a}
        </style>
    </defs>
    <g id="Group_4516" data-name="Group 4516" transform="translate(0 -121)">
        <path id="Path_1597" d="M14.529 124.574c-.129-.146-3.273-3.574-7.21-3.574s-7.08 3.428-7.21 3.574a.429.429 0 0 0 0 .572c.131.146 3.274 3.574 7.21 3.574s7.08-3.428 7.21-3.574a.429.429 0 0 0 0-.572zm-4.208.286a3 3 0 1 1-3-3 3.006 3.006 0 0 1 3 3z" class="cls-1" data-name="Path 1597"/>
        <path id="Path_1598" d="M184.2 182.036a1 1 0 0 1 .672-.841 3.825 3.825 0 0 0-1.2-.2c-1.47 0-2.667.775-2.667 1.727s1.2 1.727 2.667 1.727a2.589 2.589 0 0 0 2.621-1.436c-1.079.229-2.093-.297-2.093-.977z" class="cls-1" data-name="Path 1598" transform="translate(-176.341 -57.867)"/>
    </g>
</svg>
